<svg id="Слой_1" data-name="Слой 1" xmlns="http://www.w3.org/2000/svg" xmlns:xlink="http://www.w3.org/1999/xlink" viewBox="0 0 290.88 290.88">
  <defs>
    <style>
      .cls-1 {
        fill: #774c99;
      }

      .cls-2 {
        fill: url(#Безымянный_градиент_5);
      }

      .cls-3 {
        fill: url(#Безымянный_градиент_27);
      }
    </style>
    <linearGradient id="Безымянный_градиент_5" data-name="Безымянный градиент 5" x1="-9.74" y1="220.26" x2="296.61" y2="72.55" gradientUnits="userSpaceOnUse">
      <stop offset="0" stop-color="#774c99"/>
      <stop offset="1" stop-color="#101318"/>
    </linearGradient>
    <linearGradient id="Безымянный_градиент_27" data-name="Безымянный градиент 27" x1="70.66" y1="218.24" x2="193.53" y2="72.61" gradientUnits="userSpaceOnUse">
      <stop offset="0.32" stop-color="#95c93d"/>
      <stop offset="0.39" stop-color="#99cb44"/>
      <stop offset="0.48" stop-color="#a2d056"/>
      <stop offset="0.59" stop-color="#b2d874"/>
      <stop offset="0.7" stop-color="#c9e39e"/>
      <stop offset="0.83" stop-color="#e5f1d3"/>
      <stop offset="0.92" stop-color="#fafbfa"/>
    </linearGradient>
  </defs>
  <title>ico_vim</title>
  <path class="cls-1" d="M175.66,14.1c.34.82.65,2.34,1,2.36,11.15.4,20.77,5.78,30.21,10.5,18.64,9.34,35.89,21.08,49.19,37.5,7.62,9.41,12.59,20.46,17.68,31.49,10.6,23,9.38,47.32,8.06,71.32-.83,15.08-7.42,29.38-15.35,42.4-6.13,10.07-12.07,20.9-20.56,28.7-10.91,10-23.47,19.18-36.9,25.18-9.47,4.24-18.77,10.84-30,10.89-1.67,0-3.28,1.53-5,1.71-10.15,1.09-20.3,2.38-30.47,2.78-5.37.21-10.22-3.58-16.1-2.88-5.41.64-10.78-1.31-16.14-2.27-16-2.88-29.25-11-42.33-19.58A105.26,105.26,0,0,1,49.79,238a143.49,143.49,0,0,1-25.5-36.87c-.94-2-1.11-4.38-1.88-7.58l-4.5-1.32c-1.19-5-1.43-10.83-4-15.28a19.08,19.08,0,0,1-2.44-9.12c-.33-5,1.41-10.28-2.71-14.77-1-1.05-.39-3.75-.1-5.62.83-5.38,2.15-10.7,2.76-16.1.57-5.15-.1-10.48.86-15.54s1.92-11.4,5.25-14.9c7.11-7.47,9.35-17.46,15-25.29,15-20.79,32.33-39.59,56.67-49.8,9-3.76,17.56-9.21,27.85-9.31.35,0,.68-1.54,1-2.36ZM144.9,264.88a226.48,226.48,0,0,0,23.19-2.47c9.59-1.38,18.55-4.39,27.17-7.69,16.15-6.19,28.46-19,43-28.14a7.4,7.4,0,0,0,2-2c7.7-11,14.93-22.29,20.39-34.67,6.11-13.83,7.18-28.76,9.83-43.32.66-3.62-2.67-7.84-2.45-11.69.6-10.83-2.69-20.87-6.16-30.62-5.21-14.61-12.34-28.67-24.83-38.4-5.91-4.6-11.27-9.68-17-14.38-4.12-3.38-9.28-5.47-13.62-8.62-10.39-7.52-22.84-9.73-34.57-13.76-7.46-2.56-16,2.17-23.16-3.09-10,6-22.07-.91-32,5.38C94.31,34.83,76.57,47.63,60.63,62.14,50.46,71.38,43.31,84,37.33,96.82a123.71,123.71,0,0,0-11.18,45.59c-.52,9.11.91,18.52,2.83,27.5,1.74,8.17,4.88,16.15,8.2,23.87C48,219,66,237.35,90.23,250.49,108.35,260.32,127.8,262.81,144.9,264.88Z"/>
  <path class="cls-2" d="M145.44,0A145.44,145.44,0,1,0,290.88,145.44,145.45,145.45,0,0,0,145.44,0Zm0,259A112.44,112.44,0,1,1,257.88,146.52,112.44,112.44,0,0,1,145.44,259Z"/>
  <path class="cls-3" d="M146.78,168.85c5.44,1.24,11.35-7.51,19-18.89A46.35,46.35,0,0,0,173,133.24c1.14-5.6.4-7.68-.38-9-2.25-3.65-7.51-4.87-11.6-4.06a12.94,12.94,0,0,0-7.45,4.7c.2-2.8,1.49-16.94,13.33-26.82,0,0,10.83-9,30.82-8.33a18.43,18.43,0,0,1,5.11.85,20.11,20.11,0,0,1,10.47,8.42c2.58,4.09,3.13,8.41,3.1,12.67-.09,13.36-5.84,26-9.51,33.34-1.32,2.63-14,27.4-33.21,45.24-4,3.75-8.26,7.09-11.52,9.66-7.54,6-11.39,9-15.33,10.23-1.81.56-11,3.45-18.59-1.26-2-1.26-3.85-3-6.72-7.5a76,76,0,0,1-9.3-21.35c-3.25-12.36-5.29-23.74-9.61-40.78C101,133,99,125.63,94.11,124.48a7.86,7.86,0,0,0-5.61,1.16l-8.83,6.1-7.38-10.92c6.3-5.93,11.81-11.46,17.68-16.56,5.65-4.91,9.58-9.07,16.35-12.64,8.45-4.47,11.54-4,12.41-3.76,7.67,1.92,10,13.59,10.2,14.55q4.89,25.34,9.77,50.66C139.24,156.59,141.22,167.58,146.78,168.85Z"/>
</svg>
