<?xml version="1.0" encoding="utf-8"?>
<!-- Generator: Adobe Illustrator 23.0.3, SVG Export Plug-In . SVG Version: 6.00 Build 0)  -->
<svg version="1.1" id="Слой_1" xmlns="http://www.w3.org/2000/svg" xmlns:xlink="http://www.w3.org/1999/xlink" x="0px" y="0px"
	 viewBox="0 0 290.88 290.88" style="enable-background:new 0 0 290.88 290.88;" xml:space="preserve">
<style type="text/css">
	.st0{fill:url(#SVGID_1_);}
	.st1{fill:#774C99;}
	.st2{fill:url(#SVGID_2_);}
	.st3{fill:url(#SVGID_3_);}
</style>
<linearGradient id="SVGID_1_" gradientUnits="userSpaceOnUse" x1="14.8636" y1="209.4753" x2="272.6194" y2="85.196">
	<stop  offset="0" style="stop-color:#101318"/>
	<stop  offset="1" style="stop-color:#101318"/>
</linearGradient>
<circle class="st0" cx="145.43" cy="146.52" r="122.37"/>
<title>ico_vk</title>
<path class="st1" d="M175.66,14.1c0.34,0.82,0.65,2.34,1,2.36c11.15,0.4,20.77,5.78,30.21,10.5c18.64,9.34,35.89,21.08,49.19,37.5
	c7.62,9.41,12.59,20.46,17.68,31.49c10.6,23,9.38,47.32,8.06,71.32c-0.83,15.08-7.42,29.38-15.35,42.4
	c-6.13,10.07-12.07,20.9-20.56,28.7c-10.91,10-23.47,19.18-36.9,25.18c-9.47,4.24-18.77,10.84-30,10.89c-1.67,0-3.28,1.53-5,1.71
	c-10.15,1.09-20.3,2.38-30.47,2.78c-5.37,0.21-10.22-3.58-16.1-2.88c-5.41,0.64-10.78-1.31-16.14-2.27
	c-16-2.88-29.25-11-42.33-19.58c-7.01-4.62-13.44-10.06-19.16-16.2c-10.38-10.88-18.98-23.32-25.5-36.87
	c-0.94-2-1.11-4.38-1.88-7.58l-4.5-1.32c-1.19-5-1.43-10.83-4-15.28c-1.56-2.79-2.4-5.92-2.44-9.12c-0.33-5,1.41-10.28-2.71-14.77
	c-1-1.05-0.39-3.75-0.1-5.62c0.83-5.38,2.15-10.7,2.76-16.1c0.57-5.15-0.1-10.48,0.86-15.54s1.92-11.4,5.25-14.9
	c7.11-7.47,9.35-17.46,15-25.29c15-20.79,32.33-39.59,56.67-49.8c9-3.76,17.56-9.21,27.85-9.31c0.35,0,0.68-1.54,1-2.36L175.66,14.1
	z M144.9,264.88c7.77-0.42,15.51-1.25,23.19-2.47c9.59-1.38,18.55-4.39,27.17-7.69c16.15-6.19,28.46-19,43-28.14
	c0.79-0.53,1.47-1.21,2-2c7.7-11,14.93-22.29,20.39-34.67c6.11-13.83,7.18-28.76,9.83-43.32c0.66-3.62-2.67-7.84-2.45-11.69
	c0.6-10.83-2.69-20.87-6.16-30.62c-5.21-14.61-12.34-28.67-24.83-38.4c-5.91-4.6-11.27-9.68-17-14.38
	c-4.12-3.38-9.28-5.47-13.62-8.62c-10.39-7.52-22.84-9.73-34.57-13.76c-7.46-2.56-16,2.17-23.16-3.09c-10,6-22.07-0.91-32,5.38
	c-22.38,3.42-40.12,16.22-56.06,30.73C50.46,71.38,43.31,84,37.33,96.82c-6.6,14.34-10.4,29.82-11.18,45.59
	c-0.52,9.11,0.91,18.52,2.83,27.5c1.74,8.17,4.88,16.15,8.2,23.87C48,219,66,237.35,90.23,250.49
	C108.35,260.32,127.8,262.81,144.9,264.88z"/>
<linearGradient id="SVGID_2_" gradientUnits="userSpaceOnUse" x1="-9.7393" y1="71.6284" x2="296.6107" y2="219.3383" gradientTransform="matrix(1 0 0 -1 0 291.8898)">
	<stop  offset="0" style="stop-color:#774C99"/>
	<stop  offset="1" style="stop-color:#101318"/>
</linearGradient>
<path class="st2" d="M145.44,0C65.12,0,0,65.12,0,145.44s65.12,145.44,145.44,145.44s145.44-65.12,145.44-145.44l0,0
	C290.87,65.12,225.76,0.01,145.44,0z M145.44,259C83.34,259,33,208.66,33,146.56S83.34,34.12,145.44,34.12
	c62.08,0,112.42,50.32,112.44,112.4c0.02,62.1-50.3,112.46-112.4,112.48C145.47,259,145.45,259,145.44,259z"/>
<linearGradient id="SVGID_3_" gradientUnits="userSpaceOnUse" x1="89.9347" y1="72.874" x2="202.2047" y2="214.054" gradientTransform="matrix(1 0 0 -1 0 291.8898)">
	<stop  offset="0.32" style="stop-color:#95C93D"/>
	<stop  offset="0.38" style="stop-color:#99CB44"/>
	<stop  offset="0.45" style="stop-color:#A2D056"/>
	<stop  offset="0.54" style="stop-color:#B2D874"/>
	<stop  offset="0.64" style="stop-color:#C9E39E"/>
	<stop  offset="0.75" style="stop-color:#E5F1D3"/>
	<stop  offset="0.82" style="stop-color:#FAFBFA"/>
</linearGradient>
<path class="st3" d="M197.33,157.25c1,5.71,9.29,6.78,21,19.13c2.12,2.2,3.82,4.77,5,7.59c1,2.46,3.37,8.11,1.1,11.31
	c-1.16,1.63-3.2,2.17-15,1.85c-10.69-0.29-16.11-0.47-19.6-1.85c-6.14-2.43-10.41-6.49-13-9c-6.61-6.27-8.3-11.19-11.41-10.71
	c-2.61,0.4-4.17,4.29-5.37,7.27c-2.45,6.11-0.6,8.4-2.6,11c-0.69,0.87-3.06,3.35-19.13,1.62c-8.45-0.91-12.77-1.11-17.43-3
	c-8.88-3.58-17.54-8.49-23.38-16.25c-9.38-12.45-8.87-15-22.8-36.55C64,123.14,57.13,116.39,59.9,111.48
	c1.78-3.13,6.6-3.92,14.75-5.25c6.95-1.13,10.81-1.76,14.83-0.17c6.24,2.46,7.73,8.24,14.15,20c3.92,7.13,8.31,14,13.12,20.56
	c1.17,0.45,3.71,1.25,5.57,0c0.38-0.26,0.72-0.57,1-0.94c2.1-2.86,0.29-24.11,0-26.86c-10.19-5.79-10.11-9-9.91-10
	c0.81-3.91,10.61-4.72,20.46-5.53c11.9-1,23.14-1.91,26.86,4.15c1.51,2.47,1.37,5.43,1.24,8.26c-0.26,5.57-2.46,7.67-3.65,12.94
	c-0.87,4.09-0.85,8.32,0.07,12.4c0.17,0.71,1.5,6,4.42,6.39c1.81,0.25,3.42-1.49,4.3-2.49c8-9.12,14.38-24.23,14.38-24.23
	c3.86-9.17,5-12.43,8.85-14.39c2.31-1.19,4.41-1.31,8.29-1.3c7.25,0.02,14.5,0.45,21.7,1.3c1.71,0.89,3.11,2.29,4,4
	c0.81,1.68,2.86,7.51-10.92,25.59C202.06,150.86,196.47,152.38,197.33,157.25z"/>
</svg>
