<?xml version="1.0" encoding="utf-8"?>
<!-- Generator: Adobe Illustrator 23.0.3, SVG Export Plug-In . SVG Version: 6.00 Build 0)  -->
<svg version="1.1" id="Слой_1" xmlns="http://www.w3.org/2000/svg" xmlns:xlink="http://www.w3.org/1999/xlink" x="0px" y="0px"
	 viewBox="0 0 290.88 290.88" style="enable-background:new 0 0 290.88 290.88;" xml:space="preserve">
<style type="text/css">
	.st0{fill:url(#SVGID_1_);}
	.st1{fill:#774C99;}
	.st2{fill:url(#SVGID_2_);}
	.st3{fill:url(#SVGID_3_);}
</style>
<linearGradient id="SVGID_1_" gradientUnits="userSpaceOnUse" x1="14.8636" y1="209.4753" x2="272.6194" y2="85.196">
	<stop  offset="0" style="stop-color:#101318"/>
	<stop  offset="1" style="stop-color:#101318"/>
</linearGradient>
<circle class="st0" cx="145.43" cy="146.52" r="122.37"/>
<title>ico_utb</title>
<path class="st1" d="M175.66,14.1c0.34,0.82,0.65,2.34,1,2.36c11.15,0.4,20.77,5.78,30.21,10.5c18.64,9.34,35.89,21.08,49.19,37.5
	c7.62,9.41,12.59,20.46,17.68,31.49c10.6,23,9.38,47.32,8.06,71.32c-0.83,15.08-7.42,29.38-15.35,42.4
	c-6.13,10.07-12.07,20.9-20.56,28.7c-10.91,10-23.47,19.18-36.9,25.18c-9.47,4.24-18.77,10.84-30,10.89c-1.67,0-3.28,1.53-5,1.71
	c-10.15,1.09-20.3,2.38-30.47,2.78c-5.37,0.21-10.22-3.58-16.1-2.88c-5.41,0.64-10.78-1.31-16.14-2.27
	c-16-2.88-29.25-11-42.33-19.58c-7.01-4.62-13.44-10.06-19.16-16.2c-10.38-10.88-18.98-23.32-25.5-36.87
	c-0.94-2-1.11-4.38-1.88-7.58l-4.5-1.32c-1.19-5-1.43-10.83-4-15.28c-1.56-2.79-2.4-5.92-2.44-9.12c-0.33-5,1.41-10.28-2.71-14.77
	c-1-1.05-0.39-3.75-0.1-5.62c0.83-5.38,2.15-10.7,2.76-16.1c0.57-5.15-0.1-10.48,0.86-15.54s1.92-11.4,5.25-14.9
	c7.11-7.47,9.35-17.46,15-25.29c15-20.79,32.33-39.59,56.67-49.8c9-3.76,17.56-9.21,27.85-9.31c0.35,0,0.68-1.54,1-2.36L175.66,14.1
	z M144.9,264.88c7.77-0.42,15.51-1.25,23.19-2.47c9.59-1.38,18.55-4.39,27.17-7.69c16.15-6.19,28.46-19,43-28.14
	c0.79-0.53,1.47-1.21,2-2c7.7-11,14.93-22.29,20.39-34.67c6.11-13.83,7.18-28.76,9.83-43.32c0.66-3.62-2.67-7.84-2.45-11.69
	c0.6-10.83-2.69-20.87-6.16-30.62c-5.21-14.61-12.34-28.67-24.83-38.4c-5.91-4.6-11.27-9.68-17-14.38
	c-4.12-3.38-9.28-5.47-13.62-8.62c-10.39-7.52-22.84-9.73-34.57-13.76c-7.46-2.56-16,2.17-23.16-3.09c-10,6-22.07-0.91-32,5.38
	c-22.38,3.42-40.12,16.22-56.06,30.73C50.46,71.38,43.31,84,37.33,96.82c-6.6,14.34-10.4,29.82-11.18,45.59
	c-0.52,9.11,0.91,18.52,2.83,27.5c1.74,8.17,4.88,16.15,8.2,23.87C48,219,66,237.35,90.23,250.49
	C108.35,260.32,127.8,262.81,144.9,264.88z"/>
<linearGradient id="SVGID_2_" gradientUnits="userSpaceOnUse" x1="-9.7393" y1="71.6284" x2="296.6107" y2="219.3383" gradientTransform="matrix(1 0 0 -1 0 291.8898)">
	<stop  offset="0" style="stop-color:#774C99"/>
	<stop  offset="1" style="stop-color:#101318"/>
</linearGradient>
<path class="st2" d="M145.44,0C65.12,0,0,65.12,0,145.44s65.12,145.44,145.44,145.44s145.44-65.12,145.44-145.44l0,0
	C290.87,65.12,225.76,0.01,145.44,0z M145.44,259C83.34,259,33,208.66,33,146.56S83.34,34.12,145.44,34.12
	c62.08,0,112.42,50.32,112.44,112.4c0.02,62.1-50.3,112.46-112.4,112.48C145.47,259,145.45,259,145.44,259z"/>
<linearGradient id="SVGID_3_" gradientUnits="userSpaceOnUse" x1="93.3829" y1="115.4095" x2="216.0229" y2="193.7095" gradientTransform="matrix(1 0 0 -1 0 291.8898)">
	<stop  offset="0.32" style="stop-color:#95C93D"/>
	<stop  offset="0.38" style="stop-color:#99CB44"/>
	<stop  offset="0.46" style="stop-color:#A2D056"/>
	<stop  offset="0.56" style="stop-color:#B2D874"/>
	<stop  offset="0.67" style="stop-color:#C9E39E"/>
	<stop  offset="0.78" style="stop-color:#E5F1D3"/>
	<stop  offset="0.86" style="stop-color:#FAFBFA"/>
</linearGradient>
<path class="st3" d="M183.84,95.71h-77.57c-18.78,0-34,15.22-34,34v27.56c0,18.78,15.22,34,34,34h77.57c18.78,0,34-15.22,34-34
	v-27.59C217.82,110.91,202.61,95.71,183.84,95.71z M132.84,165.52V121.3l38.22,22L132.84,165.52z"/>
</svg>
