<svg id="Слой_1" data-name="Слой 1" xmlns="http://www.w3.org/2000/svg" xmlns:xlink="http://www.w3.org/1999/xlink" viewBox="0 0 290.88 290.88">
  <defs>
    <style>
      .cls-1 {
        fill: #774c99;
      }

      .cls-2 {
        fill: url(#Безымянный_градиент_5);
      }

      .cls-3 {
        fill: url(#Безымянный_градиент_18);
      }

      .cls-4 {
        fill: url(#Безымянный_градиент_26);
      }

      .cls-5 {
        fill: url(#Безымянный_градиент_25);
      }

      .cls-6 {
        fill: url(#Безымянный_градиент_18-2);
      }

      .cls-7 {
        fill: url(#Безымянный_градиент_18-3);
      }

      .cls-8 {
        fill: url(#Безымянный_градиент_18-4);
      }

      .cls-9 {
        fill: url(#Безымянный_градиент_24);
      }

      .cls-10 {
        fill: url(#Безымянный_градиент_21);
      }

      .cls-11 {
        fill: url(#Безымянный_градиент_26-2);
      }

      .cls-12 {
        fill: url(#Безымянный_градиент_23);
      }
    </style>
    <linearGradient id="Безымянный_градиент_5" data-name="Безымянный градиент 5" x1="-9.74" y1="220.26" x2="296.61" y2="72.55" gradientUnits="userSpaceOnUse">
      <stop offset="0" stop-color="#774c99"/>
      <stop offset="1" stop-color="#101318"/>
    </linearGradient>
    <linearGradient id="Безымянный_градиент_18" data-name="Безымянный градиент 18" x1="90.3" y1="225.38" x2="197.75" y2="88.78" gradientUnits="userSpaceOnUse">
      <stop offset="0.32" stop-color="#95c93d"/>
      <stop offset="0.38" stop-color="#99cb44"/>
      <stop offset="0.46" stop-color="#a2d056"/>
      <stop offset="0.56" stop-color="#b2d874"/>
      <stop offset="0.67" stop-color="#c9e39e"/>
      <stop offset="0.78" stop-color="#e5f1d3"/>
      <stop offset="0.86" stop-color="#fafbfa"/>
    </linearGradient>
    <linearGradient id="Безымянный_градиент_26" data-name="Безымянный градиент 26" x1="156.95" y1="221" x2="227.29" y2="106.55" gradientUnits="userSpaceOnUse">
      <stop offset="0" stop-color="#95c93d"/>
      <stop offset="0.09" stop-color="#99cb44"/>
      <stop offset="0.23" stop-color="#a2d056"/>
      <stop offset="0.38" stop-color="#b2d874"/>
      <stop offset="0.55" stop-color="#c9e39e"/>
      <stop offset="0.74" stop-color="#e5f1d3"/>
      <stop offset="0.86" stop-color="#fafbfa"/>
    </linearGradient>
    <linearGradient id="Безымянный_градиент_25" data-name="Безымянный градиент 25" x1="191.41" y1="187.07" x2="258.28" y2="118.95" gradientUnits="userSpaceOnUse">
      <stop offset="0" stop-color="#95c93d"/>
      <stop offset="0.1" stop-color="#99cb44"/>
      <stop offset="0.24" stop-color="#a2d056"/>
      <stop offset="0.41" stop-color="#b2d874"/>
      <stop offset="0.59" stop-color="#c9e39e"/>
      <stop offset="0.79" stop-color="#e5f1d3"/>
      <stop offset="0.91" stop-color="#fafbfa"/>
    </linearGradient>
    <linearGradient id="Безымянный_градиент_18-2" x1="84.15" y1="177.55" x2="101.14" y2="140.6" xlink:href="#Безымянный_градиент_18"/>
    <linearGradient id="Безымянный_градиент_18-3" x1="46.82" y1="179.72" x2="97.14" y2="107.4" xlink:href="#Безымянный_градиент_18"/>
    <linearGradient id="Безымянный_градиент_18-4" x1="77.79" y1="175.97" x2="144.37" y2="99.19" xlink:href="#Безымянный_градиент_18"/>
    <linearGradient id="Безымянный_градиент_24" data-name="Безымянный градиент 24" x1="78.81" y1="120.34" x2="119.15" y2="84.63" gradientUnits="userSpaceOnUse">
      <stop offset="0.16" stop-color="#95c93d"/>
      <stop offset="0.23" stop-color="#99cb44"/>
      <stop offset="0.34" stop-color="#a2d056"/>
      <stop offset="0.47" stop-color="#b2d874"/>
      <stop offset="0.61" stop-color="#c9e39e"/>
      <stop offset="0.76" stop-color="#e5f1d3"/>
      <stop offset="0.86" stop-color="#fafbfa"/>
    </linearGradient>
    <linearGradient id="Безымянный_градиент_21" data-name="Безымянный градиент 21" x1="117.04" y1="109.78" x2="153.54" y2="75.69" gradientUnits="userSpaceOnUse">
      <stop offset="0.12" stop-color="#95c93d"/>
      <stop offset="0.2" stop-color="#99cb44"/>
      <stop offset="0.31" stop-color="#a2d056"/>
      <stop offset="0.44" stop-color="#b2d874"/>
      <stop offset="0.59" stop-color="#c9e39e"/>
      <stop offset="0.75" stop-color="#e5f1d3"/>
      <stop offset="0.86" stop-color="#fafbfa"/>
    </linearGradient>
    <linearGradient id="Безымянный_градиент_26-2" x1="152.23" y1="146.41" x2="205.69" y2="86.62" xlink:href="#Безымянный_градиент_26"/>
    <linearGradient id="Безымянный_градиент_23" data-name="Безымянный градиент 23" x1="125.79" y1="143.14" x2="164.28" y2="106.88" gradientUnits="userSpaceOnUse">
      <stop offset="0.02" stop-color="#95c93d"/>
      <stop offset="0.11" stop-color="#99cb44"/>
      <stop offset="0.24" stop-color="#a2d056"/>
      <stop offset="0.39" stop-color="#b2d874"/>
      <stop offset="0.56" stop-color="#c9e39e"/>
      <stop offset="0.74" stop-color="#e5f1d3"/>
      <stop offset="0.86" stop-color="#fafbfa"/>
    </linearGradient>
  </defs>
  <title>ico_pix</title>
  <path class="cls-1" d="M175.66,14.1c.34.82.65,2.34,1,2.36,11.15.4,20.77,5.78,30.21,10.5,18.64,9.34,35.89,21.08,49.19,37.5,7.62,9.41,12.59,20.46,17.68,31.49,10.6,23,9.38,47.32,8.06,71.32-.83,15.08-7.42,29.38-15.35,42.4-6.13,10.07-12.07,20.9-20.56,28.7-10.91,10-23.47,19.18-36.9,25.18-9.47,4.24-18.77,10.84-30,10.89-1.67,0-3.28,1.53-5,1.71-10.15,1.09-20.3,2.38-30.47,2.78-5.37.21-10.22-3.58-16.1-2.88-5.41.64-10.78-1.31-16.14-2.27-16-2.88-29.25-11-42.33-19.58A105.26,105.26,0,0,1,49.79,238a143.49,143.49,0,0,1-25.5-36.87c-.94-2-1.11-4.38-1.88-7.58l-4.5-1.32c-1.19-5-1.43-10.83-4-15.28a19.08,19.08,0,0,1-2.44-9.12c-.33-5,1.41-10.28-2.71-14.77-1-1.05-.39-3.75-.1-5.62.83-5.38,2.15-10.7,2.76-16.1.57-5.15-.1-10.48.86-15.54s1.92-11.4,5.25-14.9c7.11-7.47,9.35-17.46,15-25.29,15-20.79,32.33-39.59,56.67-49.8,9-3.76,17.56-9.21,27.85-9.31.35,0,.68-1.54,1-2.36ZM144.9,264.88a226.48,226.48,0,0,0,23.19-2.47c9.59-1.38,18.55-4.39,27.17-7.69,16.15-6.19,28.46-19,43-28.14a7.4,7.4,0,0,0,2-2c7.7-11,14.93-22.29,20.39-34.67,6.11-13.83,7.18-28.76,9.83-43.32.66-3.62-2.67-7.84-2.45-11.69.6-10.83-2.69-20.87-6.16-30.62-5.21-14.61-12.34-28.67-24.83-38.4-5.91-4.6-11.27-9.68-17-14.38-4.12-3.38-9.28-5.47-13.62-8.62-10.39-7.52-22.84-9.73-34.57-13.76-7.46-2.56-16,2.17-23.16-3.09-10,6-22.07-.91-32,5.38C94.31,34.83,76.57,47.63,60.63,62.14,50.46,71.38,43.31,84,37.33,96.82a123.71,123.71,0,0,0-11.18,45.59c-.52,9.11.91,18.52,2.83,27.5,1.74,8.17,4.88,16.15,8.2,23.87C48,219,66,237.35,90.23,250.49,108.35,260.32,127.8,262.81,144.9,264.88Z"/>
  <path class="cls-2" d="M145.44,0A145.44,145.44,0,1,0,290.88,145.44,145.45,145.45,0,0,0,145.44,0Zm0,259A112.44,112.44,0,1,1,257.88,146.52,112.44,112.44,0,0,1,145.44,259Z"/>
  <path class="cls-3" d="M115.28,217.45c-3.62-.12-7-5.55-8-10-1.14-5.46,1.89-7.33.38-12.07-1.56-4.91-5.25-4.24-7.32-9.24-2.38-5.76.24-12.13,1.8-15.91a33.26,33.26,0,0,1,5.14-8.47c5-6,16.34-15.37,31.57-15.15,13.21.2,29.54,7.6,30,16.69.32,5.94-6.18,11.54-7.83,13a23.7,23.7,0,0,1-11.16,5.52,45.85,45.85,0,0,1-10.36.45,18.91,18.91,0,0,0-5.56.06c-.56.11-3.92.77-5.81,2.54-3.21,3-.72,7.91-1.33,14.62C126.07,208.25,120.14,217.61,115.28,217.45Z"/>
  <path class="cls-4" d="M170.34,178.69a13.65,13.65,0,0,0-5.36,2.66c-3,2.15-3.53,3.58-7.69,8.66s-6.14,6.71-7.9,10.88a9.54,9.54,0,0,0-.91,3.78c0,3.72,2.49,6.4,3.51,7.49.36.38,4.53,4.7,10.52,4.91,3.36.11,5.65-1.12,16.53-9.73,13.25-10.48,16.42-13.86,15.65-17.29a6.22,6.22,0,0,0-1.12-2.25c-1.95-3-4.43-3.67-12.8-6.64C174.14,178.8,172.75,178.2,170.34,178.69Z"/>
  <path class="cls-5" d="M196.14,178.31c-.54-2.61,5.8-3.95,9.08-10.53,1.39-2.78.48-3,2.21-6.93,1.33-3,2.82-6.37,6.29-8.86a14.9,14.9,0,0,1,10.08-2.79c4.8.54,10.29,3.81,10.07,6.64s-5.82,2.29-12.57,8.09c-3.56,3-2.63,3.73-7.8,8.95-4.67,4.72-8.64,8.62-13.12,8C198.89,180.66,196.46,179.83,196.14,178.31Z"/>
  <path class="cls-6" d="M88.07,152.7c-1.08,1,.5,5,3,7.57s6.11,4.21,7.12,3.21-.76-4.7-2.89-7.06C93,153.87,89.16,151.73,88.07,152.7Z"/>
  <path class="cls-7" d="M69.25,130.79c-2.12,1-2.1,4.79-2.1,5.67,0,5.34,4.63,10.84,10,10.85,1.72,0,5.24-.55,6.1-2.82C85.13,139.56,73.62,128.74,69.25,130.79Z"/>
  <path class="cls-8" d="M113.36,119.78c-2.16.19-3.48,2.21-3.92,2.89a7.47,7.47,0,0,0-1.15,4.1c0,1.65.58,2.62,1.6,4.75a73.87,73.87,0,0,1,3.47,8.22c1.27,3.76,1.91,5.63,1.92,5.71.2,1,.34,2.28,1,2.44s1.27-.76,1.47-1c1.27-1.66,1.19-3.71,1.09-5.71s-.16-3.33-.92-4.77c-.64-1.22-1.4-1.85-1.84-3.51a8.47,8.47,0,0,1-.25-2.05c.07-3.35,3-4.31,3-6.61S115.94,119.55,113.36,119.78Z"/>
  <path class="cls-9" d="M110.5,113.39c1-.88-.48-2.85-1.35-10.1-.52-4.4-.16-5.37-1.05-8.38a24,24,0,0,0-3.18-6.64c-2.07-3-3.7-5.39-5.87-5.49-3.25-.15-6.7,4.84-7.32,9.44-.92,6.82,4.45,12.23,7.12,14.92C102.77,111.08,108.77,114.85,110.5,113.39Z"/>
  <path class="cls-10" d="M141.88,108.1c-2.68-.26-4.5-5.42-4.71-9.14-.14-2.39.5-2.14.67-6.65.19-5.13-.58-7.19-.87-7.89-.54-1.32-.85-1.44-1.54-3.18a19.84,19.84,0,0,1-1.34-5.19c-.3-4.24,3.56-10.4,8.08-10.59,4.78-.21,9.25,6.29,9.43,11.74.22,6.33-5.46,7.79-5.28,15.12.11,4.45,2.26,6.12,1.05,10C146.49,105.17,144.09,108.31,141.88,108.1Z"/>
  <path class="cls-11" d="M165.85,147.5c-2.33-1.37-1.46-8.12.77-12.83s4.42-4.37,6.55-9.11c2.56-5.73-.12-7.37,2.56-11.43,2.5-3.77,5.85-3.91,7.58-8.47a16.57,16.57,0,0,0,.77-4.11c1.68-13.41,2.13-14.47,2.69-15.4,2.27-3.73,7.26-6.75,10.78-5.39,2.89,1.12,3.83,4.81,4,5.39,1.49,5.88-2.77,12.49-6.73,16-2.4,2.13-3.83,2.36-5.21,4.78-1.66,2.94-.41,4.09-1.89,8-1.19,3.15-2.26,3.11-5,8.19a53.26,53.26,0,0,0-2.41,5.1c-2.82,6.86-1.76,8.73-3.66,12.22C174,145.26,168.15,148.86,165.85,147.5Z"/>
  <path class="cls-12" d="M142.36,114.65c-2.53.26-4.76,7.28-3.65,13.38,1,5.86,5.16,10.69,6.45,10.2.89-.34-.31-3,.38-8.47.64-5,2.08-6.11,1.44-9.15S144.17,114.45,142.36,114.65Z"/>
</svg>
