<?xml version="1.0" encoding="utf-8"?>
<!-- Generator: Adobe Illustrator 23.0.3, SVG Export Plug-In . SVG Version: 6.00 Build 0)  -->
<svg version="1.1" id="Слой_1" xmlns="http://www.w3.org/2000/svg" xmlns:xlink="http://www.w3.org/1999/xlink" x="0px" y="0px"
	 viewBox="0 0 595.28 841.89" style="enable-background:new 0 0 595.28 841.89;" xml:space="preserve">
<style type="text/css">
	.st0{fill:#774C99;}
	.st1{fill:url(#SVGID_1_);}
	.st2{fill:url(#SVGID_2_);}
</style>
<path class="st0" d="M313.29,354.67c0.17,0.41,0.33,1.18,0.51,1.19c5.62,0.2,10.47,2.91,15.23,5.3c9.4,4.71,18.1,10.63,24.8,18.9
	c3.84,4.75,6.35,10.32,8.91,15.88c5.35,11.6,4.73,23.86,4.07,35.96c-0.42,7.6-3.74,14.81-7.74,21.38
	c-3.09,5.07-6.08,10.54-10.37,14.47c-5.5,5.05-11.83,9.67-18.6,12.7c-4.77,2.13-9.46,5.46-15.15,5.49c-0.84,0-1.66,0.77-2.52,0.86
	c-5.11,0.55-10.23,1.2-15.36,1.4c-2.71,0.11-5.15-1.8-8.11-1.45c-2.73,0.32-5.43-0.66-8.14-1.14c-8.09-1.45-14.75-5.57-21.34-9.87
	c-3.51-2.29-6.79-5.12-9.65-8.19c-5.17-5.54-9.62-11.68-12.86-18.59c-0.47-1.01-0.56-2.21-0.94-3.82c-0.43-0.13-1.25-0.37-2.27-0.66
	c-0.6-2.53-0.72-5.46-2.02-7.7c-0.93-1.6-1.12-2.98-1.23-4.6c-0.17-2.52,0.71-5.18-1.37-7.45c-0.48-0.52-0.19-1.89-0.05-2.83
	c0.42-2.71,1.08-5.39,1.39-8.12c0.29-2.6-0.05-5.29,0.43-7.83c0.49-2.61,0.97-5.75,2.65-7.52c3.58-3.77,4.71-8.8,7.56-12.75
	c7.57-10.48,16.3-19.96,28.58-25.11c4.53-1.9,8.85-4.64,14.04-4.7c0.18,0,0.34-0.77,0.51-1.19
	C293.93,354.67,303.61,354.67,313.29,354.67z M297.78,481.11c4.85-0.24,8.27-0.75,11.69-1.24c4.84-0.7,9.36-2.21,13.7-3.88
	c8.14-3.12,14.35-9.57,21.66-14.19c0.4-0.25,0.75-0.63,1.02-1.02c3.88-5.56,7.53-11.24,10.28-17.48c3.08-6.97,3.62-14.5,4.95-21.84
	c0.33-1.83-1.34-3.95-1.24-5.89c0.31-5.46-1.35-10.52-3.1-15.44c-2.63-7.37-6.22-14.46-12.52-19.36c-2.98-2.32-5.68-4.88-8.57-7.25
	c-2.08-1.7-4.68-2.76-6.87-4.35c-5.24-3.79-11.51-4.91-17.43-6.94c-3.76-1.29-8.06,1.1-11.68-1.56c-5.01,3.03-11.12-0.46-16.11,2.71
	c-11.3,1.74-20.24,8.19-28.28,15.51c-5.13,4.66-8.73,11.02-11.75,17.49c-3.41,7.31-5.19,15.05-5.64,22.99
	c-0.26,4.59,0.46,9.34,1.43,13.86c0.88,4.12,2.46,8.14,4.14,12.04c5.47,12.71,14.55,21.97,26.75,28.59
	C279.35,478.81,289.16,480.07,297.78,481.11z"/>
<linearGradient id="SVGID_1_" gradientUnits="userSpaceOnUse" x1="219.8088" y1="458.6169" x2="374.275" y2="384.1396">
	<stop  offset="0" style="stop-color:#774C99"/>
	<stop  offset="1" style="stop-color:#101318"/>
</linearGradient>
<path class="st1" d="M298.06,347.56c-40.5,0-73.33,32.83-73.33,73.33c0,40.5,32.83,73.33,73.33,73.33
	c40.5,0,73.33-32.83,73.33-73.33C371.39,380.39,338.56,347.56,298.06,347.56z M298.06,478.13c-31.31,0-56.69-25.38-56.69-56.69
	c0-31.31,25.38-56.69,56.69-56.69c31.31,0,56.69,25.38,56.69,56.69C354.75,452.75,329.37,478.13,298.06,478.13z"/>
<linearGradient id="SVGID_2_" gradientUnits="userSpaceOnUse" x1="270.0695" y1="457.9884" x2="326.6792" y2="386.8046">
	<stop  offset="0.3209" style="stop-color:#95C93D"/>
	<stop  offset="0.366" style="stop-color:#98CA40"/>
	<stop  offset="0.4297" style="stop-color:#A0CD4D"/>
	<stop  offset="0.5044" style="stop-color:#ABD265"/>
	<stop  offset="0.5874" style="stop-color:#BCDA86"/>
	<stop  offset="0.6773" style="stop-color:#D1E4AC"/>
	<stop  offset="0.7716" style="stop-color:#EAF2DD"/>
	<stop  offset="0.8196" style="stop-color:#FAFBFA"/>
</linearGradient>
<path class="st2" d="M324.22,426.84c0.51,2.88,4.68,3.42,10.61,9.65c0.41,0.43,1.64,1.75,2.51,3.83c0.51,1.24,1.7,4.09,0.55,5.7
	c-0.58,0.82-1.61,1.09-7.56,0.93c-5.39-0.15-8.12-0.24-9.88-0.93c-3.1-1.23-5.25-3.27-6.57-4.52c-3.33-3.16-4.19-5.64-5.75-5.4
	c-1.31,0.2-2.1,2.16-2.71,3.66c-1.24,3.08-0.3,4.24-1.32,5.53c-0.35,0.44-1.54,1.69-9.64,0.82c-4.26-0.46-6.44-0.56-8.79-1.51
	c-4.48-1.81-8.84-4.28-11.79-8.2c-4.73-6.28-4.47-7.56-11.5-18.43c-5.38-8.33-8.87-11.73-7.46-14.21c0.89-1.58,3.33-1.98,7.43-2.65
	c3.5-0.57,5.45-0.89,7.48-0.09c3.15,1.24,3.9,4.16,7.14,10.06c1.38,2.52,3.53,6.15,6.62,10.37c0.59,0.23,1.87,0.63,2.81,0
	c0,0,0.27-0.18,0.49-0.48c1.06-1.44,0.14-12.16,0.02-13.54c-5.14-2.92-5.1-4.53-5-5.02c0.41-1.97,5.35-2.38,10.32-2.79
	c6-0.5,11.67-0.96,13.54,2.09c0.76,1.24,0.69,2.74,0.63,4.17c-0.13,2.8-1.24,3.86-1.84,6.52c-0.31,1.4-0.54,3.49,0.04,6.25
	c0.09,0.36,0.75,3.03,2.23,3.22c0.91,0.12,1.73-0.75,2.17-1.26c4.05-4.6,7.25-12.22,7.25-12.22c1.94-4.62,2.54-6.27,4.46-7.26
	c1.16-0.6,2.22-0.66,4.18-0.65c2.71,0.01,6.42,0.13,10.94,0.65c0.65,0.36,1.53,0.99,2.03,2.03c0.41,0.84,1.44,3.78-5.51,12.9
	C326.61,423.62,323.79,424.39,324.22,426.84z"/>
</svg>
