<?xml version="1.0" encoding="utf-8"?>
<!-- Generator: Adobe Illustrator 23.0.3, SVG Export Plug-In . SVG Version: 6.00 Build 0)  -->
<svg version="1.1" id="Слой_1" xmlns="http://www.w3.org/2000/svg" xmlns:xlink="http://www.w3.org/1999/xlink" x="0px" y="0px"
	 viewBox="0 0 290.88 290.88" style="enable-background:new 0 0 290.88 290.88;" xml:space="preserve">
<style type="text/css">
	.st0{fill:url(#SVGID_1_);}
	.st1{fill:#774C99;}
	.st2{fill:url(#SVGID_2_);}
	.st3{fill:url(#SVGID_3_);}
	.st4{fill:url(#SVGID_4_);}
	.st5{fill:url(#SVGID_5_);}
	.st6{fill:url(#SVGID_6_);}
	.st7{fill:url(#SVGID_7_);}
	.st8{fill:url(#SVGID_8_);}
	.st9{fill:url(#SVGID_9_);}
	.st10{fill:url(#SVGID_10_);}
	.st11{fill:url(#SVGID_11_);}
	.st12{fill:url(#SVGID_12_);}
</style>
<linearGradient id="SVGID_1_" gradientUnits="userSpaceOnUse" x1="14.8636" y1="209.4753" x2="272.6194" y2="85.196">
	<stop  offset="0" style="stop-color:#101318"/>
	<stop  offset="1" style="stop-color:#101318"/>
</linearGradient>
<circle class="st0" cx="145.43" cy="146.52" r="122.37"/>
<title>ico_pix</title>
<path class="st1" d="M175.66,14.1c0.34,0.82,0.65,2.34,1,2.36c11.15,0.4,20.77,5.78,30.21,10.5c18.64,9.34,35.89,21.08,49.19,37.5
	c7.62,9.41,12.59,20.46,17.68,31.49c10.6,23,9.38,47.32,8.06,71.32c-0.83,15.08-7.42,29.38-15.35,42.4
	c-6.13,10.07-12.07,20.9-20.56,28.7c-10.91,10-23.47,19.18-36.9,25.18c-9.47,4.24-18.77,10.84-30,10.89c-1.67,0-3.28,1.53-5,1.71
	c-10.15,1.09-20.3,2.38-30.47,2.78c-5.37,0.21-10.22-3.58-16.1-2.88c-5.41,0.64-10.78-1.31-16.14-2.27
	c-16-2.88-29.25-11-42.33-19.58c-7.01-4.62-13.44-10.06-19.16-16.2c-10.38-10.88-18.98-23.32-25.5-36.87
	c-0.94-2-1.11-4.38-1.88-7.58l-4.5-1.32c-1.19-5-1.43-10.83-4-15.28c-1.56-2.79-2.4-5.92-2.44-9.12c-0.33-5,1.41-10.28-2.71-14.77
	c-1-1.05-0.39-3.75-0.1-5.62c0.83-5.38,2.15-10.7,2.76-16.1c0.57-5.15-0.1-10.48,0.86-15.54s1.92-11.4,5.25-14.9
	c7.11-7.47,9.35-17.46,15-25.29c15-20.79,32.33-39.59,56.67-49.8c9-3.76,17.56-9.21,27.85-9.31c0.35,0,0.68-1.54,1-2.36L175.66,14.1
	z M144.9,264.88c7.77-0.42,15.51-1.25,23.19-2.47c9.59-1.38,18.55-4.39,27.17-7.69c16.15-6.19,28.46-19,43-28.14
	c0.79-0.53,1.47-1.21,2-2c7.7-11,14.93-22.29,20.39-34.67c6.11-13.83,7.18-28.76,9.83-43.32c0.66-3.62-2.67-7.84-2.45-11.69
	c0.6-10.83-2.69-20.87-6.16-30.62c-5.21-14.61-12.34-28.67-24.83-38.4c-5.91-4.6-11.27-9.68-17-14.38
	c-4.12-3.38-9.28-5.47-13.62-8.62c-10.39-7.52-22.84-9.73-34.57-13.76c-7.46-2.56-16,2.17-23.16-3.09c-10,6-22.07-0.91-32,5.38
	c-22.38,3.42-40.12,16.22-56.06,30.73C50.46,71.38,43.31,84,37.33,96.82c-6.6,14.34-10.4,29.82-11.18,45.59
	c-0.52,9.11,0.91,18.52,2.83,27.5c1.74,8.17,4.88,16.15,8.2,23.87C48,219,66,237.35,90.23,250.49
	C108.35,260.32,127.8,262.81,144.9,264.88z"/>
<linearGradient id="SVGID_2_" gradientUnits="userSpaceOnUse" x1="-9.7393" y1="71.6284" x2="296.6107" y2="219.3383" gradientTransform="matrix(1 0 0 -1 0 291.8898)">
	<stop  offset="0" style="stop-color:#774C99"/>
	<stop  offset="1" style="stop-color:#101318"/>
</linearGradient>
<path class="st2" d="M145.44,0C65.12,0,0,65.12,0,145.44s65.12,145.44,145.44,145.44s145.44-65.12,145.44-145.44l0,0
	C290.87,65.12,225.76,0.01,145.44,0z M145.44,259C83.34,259,33,208.66,33,146.56S83.34,34.12,145.44,34.12
	c62.08,0,112.42,50.32,112.44,112.4c0.02,62.1-50.3,112.46-112.4,112.48C145.47,259,145.45,259,145.44,259z"/>
<linearGradient id="SVGID_3_" gradientUnits="userSpaceOnUse" x1="90.2681" y1="66.5349" x2="197.7181" y2="203.1349" gradientTransform="matrix(1 0 0 -1 0 291.8898)">
	<stop  offset="0.32" style="stop-color:#95C93D"/>
	<stop  offset="0.38" style="stop-color:#99CB44"/>
	<stop  offset="0.46" style="stop-color:#A2D056"/>
	<stop  offset="0.56" style="stop-color:#B2D874"/>
	<stop  offset="0.67" style="stop-color:#C9E39E"/>
	<stop  offset="0.78" style="stop-color:#E5F1D3"/>
	<stop  offset="0.86" style="stop-color:#FAFBFA"/>
</linearGradient>
<path class="st3" d="M115.28,217.45c-3.62-0.12-7-5.55-8-10c-1.14-5.46,1.89-7.33,0.38-12.07c-1.56-4.91-5.25-4.24-7.32-9.24
	c-2.38-5.76,0.24-12.13,1.8-15.91c1.28-3.06,3.01-5.92,5.14-8.47c5-6,16.34-15.37,31.57-15.15c13.21,0.2,29.54,7.6,30,16.69
	c0.32,5.94-6.18,11.54-7.83,13c-3.16,2.8-7.01,4.71-11.16,5.52c-3.43,0.54-6.9,0.69-10.36,0.45c-1.85-0.25-3.72-0.23-5.56,0.06
	c-0.56,0.11-3.92,0.77-5.81,2.54c-3.21,3-0.72,7.91-1.33,14.62C126.07,208.25,120.14,217.61,115.28,217.45z"/>
<linearGradient id="SVGID_4_" gradientUnits="userSpaceOnUse" x1="156.9477" y1="70.8912" x2="227.2877" y2="185.3412" gradientTransform="matrix(1 0 0 -1 0 291.8898)">
	<stop  offset="0" style="stop-color:#95C93D"/>
	<stop  offset="0.09" style="stop-color:#99CB44"/>
	<stop  offset="0.23" style="stop-color:#A2D056"/>
	<stop  offset="0.38" style="stop-color:#B2D874"/>
	<stop  offset="0.55" style="stop-color:#C9E39E"/>
	<stop  offset="0.74" style="stop-color:#E5F1D3"/>
	<stop  offset="0.86" style="stop-color:#FAFBFA"/>
</linearGradient>
<path class="st4" d="M170.34,178.69c-1.96,0.48-3.79,1.39-5.36,2.66c-3,2.15-3.53,3.58-7.69,8.66s-6.14,6.71-7.9,10.88
	c-0.56,1.18-0.87,2.47-0.91,3.78c0,3.72,2.49,6.4,3.51,7.49c0.36,0.38,4.53,4.7,10.52,4.91c3.36,0.11,5.65-1.12,16.53-9.73
	c13.25-10.48,16.42-13.86,15.65-17.29c-0.22-0.82-0.6-1.58-1.12-2.25c-1.95-3-4.43-3.67-12.8-6.64
	C174.14,178.8,172.75,178.2,170.34,178.69z"/>
<linearGradient id="SVGID_5_" gradientUnits="userSpaceOnUse" x1="191.4093" y1="104.8205" x2="258.2793" y2="172.9405" gradientTransform="matrix(1 0 0 -1 0 291.8898)">
	<stop  offset="0" style="stop-color:#95C93D"/>
	<stop  offset="0.1" style="stop-color:#99CB44"/>
	<stop  offset="0.24" style="stop-color:#A2D056"/>
	<stop  offset="0.41" style="stop-color:#B2D874"/>
	<stop  offset="0.59" style="stop-color:#C9E39E"/>
	<stop  offset="0.79" style="stop-color:#E5F1D3"/>
	<stop  offset="0.91" style="stop-color:#FAFBFA"/>
</linearGradient>
<path class="st5" d="M196.14,178.31c-0.54-2.61,5.8-3.95,9.08-10.53c1.39-2.78,0.48-3,2.21-6.93c1.33-3,2.82-6.37,6.29-8.86
	c2.91-2.12,6.49-3.11,10.08-2.79c4.8,0.54,10.29,3.81,10.07,6.64s-5.82,2.29-12.57,8.09c-3.56,3-2.63,3.73-7.8,8.95
	c-4.67,4.72-8.64,8.62-13.12,8C198.89,180.66,196.46,179.83,196.14,178.31z"/>
<linearGradient id="SVGID_6_" gradientUnits="userSpaceOnUse" x1="84.1702" y1="114.3305" x2="101.1602" y2="151.2805" gradientTransform="matrix(1 0 0 -1 0 291.8898)">
	<stop  offset="0.32" style="stop-color:#95C93D"/>
	<stop  offset="0.38" style="stop-color:#99CB44"/>
	<stop  offset="0.46" style="stop-color:#A2D056"/>
	<stop  offset="0.56" style="stop-color:#B2D874"/>
	<stop  offset="0.67" style="stop-color:#C9E39E"/>
	<stop  offset="0.78" style="stop-color:#E5F1D3"/>
	<stop  offset="0.86" style="stop-color:#FAFBFA"/>
</linearGradient>
<path class="st6" d="M88.07,152.7c-1.08,1,0.5,5,3,7.57s6.11,4.21,7.12,3.21s-0.76-4.7-2.89-7.06
	C93,153.87,89.16,151.73,88.07,152.7z"/>
<linearGradient id="SVGID_7_" gradientUnits="userSpaceOnUse" x1="46.8177" y1="112.1714" x2="97.1376" y2="184.4914" gradientTransform="matrix(1 0 0 -1 0 291.8898)">
	<stop  offset="0.32" style="stop-color:#95C93D"/>
	<stop  offset="0.38" style="stop-color:#99CB44"/>
	<stop  offset="0.46" style="stop-color:#A2D056"/>
	<stop  offset="0.56" style="stop-color:#B2D874"/>
	<stop  offset="0.67" style="stop-color:#C9E39E"/>
	<stop  offset="0.78" style="stop-color:#E5F1D3"/>
	<stop  offset="0.86" style="stop-color:#FAFBFA"/>
</linearGradient>
<path class="st7" d="M69.25,130.79c-2.12,1-2.1,4.79-2.1,5.67c0,5.34,4.63,10.84,10,10.85c1.72,0,5.24-0.55,6.1-2.82
	C85.13,139.56,73.62,128.74,69.25,130.79z"/>
<linearGradient id="SVGID_8_" gradientUnits="userSpaceOnUse" x1="77.8054" y1="115.9064" x2="144.3854" y2="192.6864" gradientTransform="matrix(1 0 0 -1 0 291.8898)">
	<stop  offset="0.32" style="stop-color:#95C93D"/>
	<stop  offset="0.38" style="stop-color:#99CB44"/>
	<stop  offset="0.46" style="stop-color:#A2D056"/>
	<stop  offset="0.56" style="stop-color:#B2D874"/>
	<stop  offset="0.67" style="stop-color:#C9E39E"/>
	<stop  offset="0.78" style="stop-color:#E5F1D3"/>
	<stop  offset="0.86" style="stop-color:#FAFBFA"/>
</linearGradient>
<path class="st8" d="M113.36,119.78c-2.16,0.19-3.48,2.21-3.92,2.89c-0.77,1.23-1.17,2.65-1.15,4.1c0,1.65,0.58,2.62,1.6,4.75
	c1.32,2.67,2.48,5.41,3.47,8.22c1.27,3.76,1.91,5.63,1.92,5.71c0.2,1,0.34,2.28,1,2.44s1.27-0.76,1.47-1
	c1.27-1.66,1.19-3.71,1.09-5.71s-0.16-3.33-0.92-4.77c-0.64-1.22-1.4-1.85-1.84-3.51c-0.17-0.67-0.25-1.36-0.25-2.05
	c0.07-3.35,3-4.31,3-6.61S115.94,119.55,113.36,119.78z"/>
<linearGradient id="SVGID_9_" gradientUnits="userSpaceOnUse" x1="78.8054" y1="171.555" x2="119.1454" y2="207.265" gradientTransform="matrix(1 0 0 -1 0 291.8898)">
	<stop  offset="0.16" style="stop-color:#95C93D"/>
	<stop  offset="0.23" style="stop-color:#99CB44"/>
	<stop  offset="0.34" style="stop-color:#A2D056"/>
	<stop  offset="0.47" style="stop-color:#B2D874"/>
	<stop  offset="0.61" style="stop-color:#C9E39E"/>
	<stop  offset="0.76" style="stop-color:#E5F1D3"/>
	<stop  offset="0.86" style="stop-color:#FAFBFA"/>
</linearGradient>
<path class="st9" d="M110.5,113.39c1-0.88-0.48-2.85-1.35-10.1c-0.52-4.4-0.16-5.37-1.05-8.38c-0.71-2.36-1.78-4.6-3.18-6.64
	c-2.07-3-3.7-5.39-5.87-5.49c-3.25-0.15-6.7,4.84-7.32,9.44c-0.92,6.82,4.45,12.23,7.12,14.92
	C102.77,111.08,108.77,114.85,110.5,113.39z"/>
<linearGradient id="SVGID_10_" gradientUnits="userSpaceOnUse" x1="117.0395" y1="182.1103" x2="153.5395" y2="216.2003" gradientTransform="matrix(1 0 0 -1 0 291.8898)">
	<stop  offset="0.12" style="stop-color:#95C93D"/>
	<stop  offset="0.2" style="stop-color:#99CB44"/>
	<stop  offset="0.31" style="stop-color:#A2D056"/>
	<stop  offset="0.44" style="stop-color:#B2D874"/>
	<stop  offset="0.59" style="stop-color:#C9E39E"/>
	<stop  offset="0.75" style="stop-color:#E5F1D3"/>
	<stop  offset="0.86" style="stop-color:#FAFBFA"/>
</linearGradient>
<path class="st10" d="M141.88,108.1c-2.68-0.26-4.5-5.42-4.71-9.14c-0.14-2.39,0.5-2.14,0.67-6.65c0.19-5.13-0.58-7.19-0.87-7.89
	c-0.54-1.32-0.85-1.44-1.54-3.18c-0.68-1.66-1.13-3.41-1.34-5.19c-0.3-4.24,3.56-10.4,8.08-10.59c4.78-0.21,9.25,6.29,9.43,11.74
	c0.22,6.33-5.46,7.79-5.28,15.12c0.11,4.45,2.26,6.12,1.05,10C146.49,105.17,144.09,108.31,141.88,108.1z"/>
<linearGradient id="SVGID_11_" gradientUnits="userSpaceOnUse" x1="152.2283" y1="145.4813" x2="205.6883" y2="205.2713" gradientTransform="matrix(1 0 0 -1 0 291.8898)">
	<stop  offset="0" style="stop-color:#95C93D"/>
	<stop  offset="0.09" style="stop-color:#99CB44"/>
	<stop  offset="0.23" style="stop-color:#A2D056"/>
	<stop  offset="0.38" style="stop-color:#B2D874"/>
	<stop  offset="0.55" style="stop-color:#C9E39E"/>
	<stop  offset="0.74" style="stop-color:#E5F1D3"/>
	<stop  offset="0.86" style="stop-color:#FAFBFA"/>
</linearGradient>
<path class="st11" d="M165.85,147.5c-2.33-1.37-1.46-8.12,0.77-12.83s4.42-4.37,6.55-9.11c2.56-5.73-0.12-7.37,2.56-11.43
	c2.5-3.77,5.85-3.91,7.58-8.47c0.43-1.33,0.69-2.71,0.77-4.11c1.68-13.41,2.13-14.47,2.69-15.4c2.27-3.73,7.26-6.75,10.78-5.39
	c2.89,1.12,3.83,4.81,4,5.39c1.49,5.88-2.77,12.49-6.73,16c-2.4,2.13-3.83,2.36-5.21,4.78c-1.66,2.94-0.41,4.09-1.89,8
	c-1.19,3.15-2.26,3.11-5,8.19c-0.89,1.66-1.7,3.36-2.41,5.1c-2.82,6.86-1.76,8.73-3.66,12.22C174,145.26,168.15,148.86,165.85,147.5
	z"/>
<linearGradient id="SVGID_12_" gradientUnits="userSpaceOnUse" x1="125.7909" y1="148.7488" x2="164.2809" y2="185.0088" gradientTransform="matrix(1 0 0 -1 0 291.8898)">
	<stop  offset="0.02" style="stop-color:#95C93D"/>
	<stop  offset="0.11" style="stop-color:#99CB44"/>
	<stop  offset="0.24" style="stop-color:#A2D056"/>
	<stop  offset="0.39" style="stop-color:#B2D874"/>
	<stop  offset="0.56" style="stop-color:#C9E39E"/>
	<stop  offset="0.74" style="stop-color:#E5F1D3"/>
	<stop  offset="0.86" style="stop-color:#FAFBFA"/>
</linearGradient>
<path class="st12" d="M142.36,114.65c-2.53,0.26-4.76,7.28-3.65,13.38c1,5.86,5.16,10.69,6.45,10.2c0.89-0.34-0.31-3,0.38-8.47
	c0.64-5,2.08-6.11,1.44-9.15S144.17,114.45,142.36,114.65z"/>
</svg>
