<?xml version="1.0" encoding="utf-8"?>
<!-- Generator: Adobe Illustrator 23.0.3, SVG Export Plug-In . SVG Version: 6.00 Build 0)  -->
<svg version="1.1" id="Слой_1" xmlns="http://www.w3.org/2000/svg" xmlns:xlink="http://www.w3.org/1999/xlink" x="0px" y="0px"
	 viewBox="0 0 595.28 841.89" style="enable-background:new 0 0 595.28 841.89;" xml:space="preserve">
<style type="text/css">
	.st0{fill:#774C99;}
	.st1{fill:url(#SVGID_1_);}
	.st2{fill:url(#SVGID_2_);}
</style>
<path class="st0" d="M327.85,258.96c0.34,0.82,0.65,2.34,1.02,2.36c11.15,0.4,20.77,5.78,30.21,10.51
	c18.64,9.34,35.9,21.07,49.19,37.49c7.62,9.41,12.59,20.46,17.67,31.49c10.61,23,9.38,47.32,8.06,71.32
	c-0.83,15.08-7.42,29.38-15.35,42.41c-6.13,10.06-12.07,20.9-20.56,28.7c-10.91,10.01-23.47,19.18-36.9,25.18
	c-9.46,4.23-18.77,10.83-30.05,10.88c-1.66,0.01-3.28,1.53-4.99,1.72c-10.14,1.09-20.29,2.38-30.47,2.78
	c-5.37,0.21-10.22-3.58-16.09-2.88c-5.41,0.64-10.78-1.3-16.14-2.27c-16.04-2.88-29.26-11.05-42.33-19.58
	c-6.97-4.54-13.46-10.16-19.14-16.24c-10.25-10.99-19.09-23.16-25.51-36.87c-0.94-2.01-1.11-4.38-1.87-7.58
	c-0.85-0.25-2.49-0.73-4.5-1.32c-1.19-5.03-1.43-10.83-4.02-15.28c-1.84-3.17-2.22-5.91-2.44-9.13c-0.33-4.99,1.41-10.28-2.72-14.77
	c-0.96-1.04-0.38-3.75-0.1-5.62c0.83-5.38,2.15-10.7,2.75-16.09c0.58-5.15-0.09-10.49,0.86-15.54c0.98-5.19,1.92-11.4,5.26-14.91
	c7.1-7.47,9.34-17.45,14.99-25.28c15.01-20.79,32.33-39.59,56.68-49.8c8.98-3.76,17.56-9.21,27.85-9.32c0.35,0,0.68-1.54,1.02-2.35
	C289.45,258.96,308.65,258.96,327.85,258.96z M297.09,509.74c9.62-0.48,16.39-1.49,23.19-2.46c9.59-1.38,18.56-4.39,27.18-7.7
	c16.15-6.19,28.46-18.98,42.96-28.14c0.79-0.5,1.49-1.25,2.03-2.02c7.7-11.02,14.93-22.3,20.39-34.67
	c6.11-13.83,7.18-28.76,9.82-43.32c0.66-3.62-2.67-7.84-2.45-11.69c0.61-10.83-2.68-20.87-6.16-30.62
	c-5.21-14.61-12.34-28.68-24.83-38.41c-5.9-4.6-11.26-9.68-17-14.38c-4.12-3.38-9.27-5.47-13.62-8.62
	c-10.39-7.52-22.84-9.73-34.57-13.76c-7.46-2.56-15.99,2.17-23.17-3.08c-9.94,6.02-22.06-0.92-31.96,5.38
	c-22.41,3.44-40.15,16.25-56.09,30.75c-10.17,9.25-17.32,21.85-23.3,34.68c-6.76,14.51-10.29,29.86-11.18,45.59
	c-0.52,9.1,0.91,18.52,2.83,27.5c1.75,8.17,4.88,16.15,8.2,23.87c10.85,25.21,28.86,43.57,53.05,56.7
	C260.55,505.18,279.99,507.68,297.09,509.74z"/>
<linearGradient id="SVGID_1_" gradientUnits="userSpaceOnUse" x1="142.4537" y1="465.1274" x2="448.8032" y2="317.4182">
	<stop  offset="0" style="stop-color:#774C99"/>
	<stop  offset="1" style="stop-color:#101318"/>
</linearGradient>
<path class="st1" d="M297.64,244.86c-80.32,0-145.44,65.12-145.44,145.44c0,80.32,65.12,145.44,145.44,145.44
	c80.32,0,145.44-65.12,145.44-145.44C443.08,309.98,377.96,244.86,297.64,244.86z M297.64,503.82
	c-62.1,0-112.44-50.34-112.44-112.44c0-62.1,50.34-112.44,112.44-112.44c62.1,0,112.44,50.34,112.44,112.44
	C410.08,453.48,359.74,503.82,297.64,503.82z"/>
<linearGradient id="SVGID_2_" gradientUnits="userSpaceOnUse" x1="242.1347" y1="463.8808" x2="354.4074" y2="322.7036">
	<stop  offset="0.3209" style="stop-color:#95C93D"/>
	<stop  offset="0.366" style="stop-color:#98CA40"/>
	<stop  offset="0.4297" style="stop-color:#A0CD4D"/>
	<stop  offset="0.5044" style="stop-color:#ABD265"/>
	<stop  offset="0.5874" style="stop-color:#BCDA86"/>
	<stop  offset="0.6773" style="stop-color:#D1E4AC"/>
	<stop  offset="0.7716" style="stop-color:#EAF2DD"/>
	<stop  offset="0.8196" style="stop-color:#FAFBFA"/>
</linearGradient>
<path class="st2" d="M349.53,402.11c1.01,5.71,9.29,6.78,21.04,19.14c0.81,0.85,3.25,3.47,4.97,7.59c1.02,2.45,3.37,8.11,1.1,11.31
	c-1.16,1.63-3.2,2.17-14.98,1.85c-10.69-0.29-16.11-0.47-19.6-1.85c-6.15-2.43-10.42-6.49-13.03-8.97
	c-6.61-6.27-8.3-11.19-11.41-10.71c-2.61,0.4-4.17,4.29-5.37,7.27c-2.46,6.12-0.6,8.4-2.61,10.96c-0.69,0.87-3.06,3.36-19.12,1.63
	c-8.45-0.91-12.77-1.11-17.43-2.99c-8.88-3.58-17.54-8.5-23.38-16.26c-9.38-12.45-8.87-14.99-22.8-36.55
	c-10.68-16.52-17.58-23.27-14.8-28.17c1.77-3.13,6.6-3.92,14.74-5.25c6.95-1.14,10.81-1.77,14.83-0.18
	c6.24,2.47,7.73,8.25,14.15,19.95c2.75,5.01,7,12.2,13.12,20.57c1.17,0.45,3.7,1.24,5.57,0c0,0,0.54-0.36,0.97-0.94
	c2.1-2.86,0.28-24.11,0.04-26.86c-10.19-5.79-10.11-8.99-9.91-9.95c0.81-3.91,10.62-4.72,20.46-5.53
	c11.9-0.98,23.14-1.91,26.86,4.15c1.51,2.47,1.37,5.42,1.24,8.26c-0.26,5.56-2.46,7.66-3.65,12.94c-0.62,2.77-1.07,6.92,0.07,12.4
	c0.17,0.71,1.49,6,4.42,6.4c1.81,0.24,3.42-1.5,4.3-2.49c8.02-9.12,14.38-24.23,14.38-24.23c3.86-9.17,5.04-12.43,8.85-14.39
	c2.3-1.19,4.41-1.3,8.29-1.3c5.37,0.01,12.74,0.26,21.69,1.3c1.29,0.72,3.03,1.96,4.02,4.02c0.81,1.68,2.85,7.51-10.92,25.59
	C354.26,395.72,348.67,397.25,349.53,402.11z"/>
</svg>
