<?xml version="1.0" encoding="utf-8"?>
<!-- Generator: Adobe Illustrator 23.0.3, SVG Export Plug-In . SVG Version: 6.00 Build 0)  -->
<svg version="1.1" id="Слой_1" xmlns="http://www.w3.org/2000/svg" xmlns:xlink="http://www.w3.org/1999/xlink" x="0px" y="0px"
	 viewBox="0 0 290.88 290.88" style="enable-background:new 0 0 290.88 290.88;" xml:space="preserve">
<style type="text/css">
	.st0{fill:url(#SVGID_1_);}
	.st1{fill:#774C99;}
	.st2{fill:url(#SVGID_2_);}
	.st3{fill:url(#SVGID_3_);}
</style>
<linearGradient id="SVGID_1_" gradientUnits="userSpaceOnUse" x1="21.8636" y1="209.4753" x2="279.6194" y2="85.196">
	<stop  offset="0" style="stop-color:#101318"/>
	<stop  offset="1" style="stop-color:#101318"/>
</linearGradient>
<circle class="st0" cx="152.43" cy="146.52" r="122.37"/>
<path class="st1" d="M175.66,14.1c0.34,0.82,0.65,2.34,1.02,2.36c11.15,0.4,20.77,5.78,30.21,10.51
	c18.64,9.34,35.9,21.07,49.19,37.49c7.62,9.41,12.59,20.46,17.67,31.49c10.61,23,9.38,47.32,8.06,71.32
	c-0.83,15.08-7.42,29.38-15.35,42.41c-6.13,10.06-12.07,20.9-20.56,28.7c-10.91,10.01-23.47,19.18-36.9,25.18
	c-9.46,4.23-18.77,10.83-30.05,10.88c-1.66,0.01-3.28,1.53-4.99,1.72c-10.14,1.09-20.29,2.38-30.47,2.78
	c-5.37,0.21-10.22-3.58-16.09-2.88c-5.41,0.64-10.78-1.3-16.14-2.27c-16.04-2.88-29.26-11.05-42.33-19.58
	c-6.97-4.54-13.46-10.16-19.14-16.24c-10.25-10.99-19.09-23.16-25.51-36.87c-0.94-2.01-1.11-4.38-1.87-7.58
	c-0.85-0.25-2.49-0.73-4.5-1.32c-1.19-5.03-1.43-10.83-4.02-15.28c-1.84-3.17-2.22-5.91-2.44-9.13c-0.33-4.99,1.41-10.28-2.72-14.77
	c-0.96-1.04-0.38-3.75-0.1-5.62c0.83-5.38,2.15-10.7,2.75-16.09c0.58-5.15-0.09-10.49,0.86-15.54c0.98-5.19,1.92-11.4,5.26-14.91
	c7.1-7.47,9.34-17.45,14.99-25.28c15.01-20.79,32.33-39.59,56.68-49.8c8.98-3.76,17.56-9.21,27.85-9.32c0.35,0,0.68-1.54,1.02-2.35
	C137.25,14.1,156.45,14.1,175.66,14.1z M144.9,264.88c9.62-0.48,16.39-1.49,23.19-2.46c9.59-1.38,18.56-4.39,27.18-7.7
	c16.15-6.19,28.46-18.98,42.96-28.14c0.79-0.5,1.49-1.25,2.03-2.02c7.7-11.02,14.93-22.3,20.39-34.67
	c6.11-13.83,7.18-28.76,9.82-43.32c0.66-3.62-2.67-7.84-2.45-11.69c0.61-10.83-2.68-20.87-6.16-30.62
	c-5.21-14.61-12.34-28.68-24.83-38.41c-5.9-4.6-11.26-9.68-17-14.38c-4.12-3.38-9.27-5.47-13.62-8.62
	c-10.39-7.52-22.84-9.73-34.57-13.76c-7.46-2.56-15.99,2.17-23.17-3.08c-9.94,6.02-22.06-0.92-31.96,5.38
	c-22.41,3.44-40.15,16.25-56.09,30.75c-10.17,9.25-17.32,21.85-23.3,34.68c-6.76,14.51-10.29,29.86-11.18,45.59
	c-0.52,9.1,0.91,18.52,2.83,27.5c1.75,8.17,4.88,16.15,8.2,23.87c10.85,25.21,28.86,43.57,53.05,56.7
	C108.35,260.32,127.8,262.81,144.9,264.88z"/>
<linearGradient id="SVGID_2_" gradientUnits="userSpaceOnUse" x1="-9.7438" y1="220.2638" x2="296.6057" y2="72.5546">
	<stop  offset="0" style="stop-color:#774C99"/>
	<stop  offset="1" style="stop-color:#101318"/>
</linearGradient>
<path class="st2" d="M145.44,0C65.12,0,0,65.12,0,145.44c0,80.32,65.12,145.44,145.44,145.44c80.32,0,145.44-65.12,145.44-145.44
	C290.88,65.12,225.76,0,145.44,0z M145.44,258.96C83.34,258.96,33,208.62,33,146.52c0-62.1,50.34-112.44,112.44-112.44
	c62.1,0,112.44,50.34,112.44,112.44C257.88,208.62,207.54,258.96,145.44,258.96z"/>
<linearGradient id="SVGID_3_" gradientUnits="userSpaceOnUse" x1="49.3522" y1="274.9593" x2="214.2139" y2="34.8169">
	<stop  offset="0.4183" style="stop-color:#95C93D"/>
	<stop  offset="0.4526" style="stop-color:#98CA40"/>
	<stop  offset="0.5009" style="stop-color:#A0CD4D"/>
	<stop  offset="0.5576" style="stop-color:#ABD265"/>
	<stop  offset="0.6206" style="stop-color:#BCDA86"/>
	<stop  offset="0.6888" style="stop-color:#D1E4AC"/>
	<stop  offset="0.7603" style="stop-color:#EAF2DD"/>
	<stop  offset="0.7967" style="stop-color:#FAFBFA"/>
</linearGradient>
<path class="st3" d="M146.11,154.71c0.26,1.31,0.93,4.5,3.52,7.13c5,5.06,13.04,3.88,13.99,3.74c11.45-1.68,20.87-16.47,22.33-29.95
	c1.74-16.04-7.41-33.78-23.78-40.89c-0.95-0.41-20.13-8.37-37.07,3.12c-13.77,9.34-15.98,24.71-16.49,28.21
	c-0.44,3.03-1.43,10.6,1.78,19.33c1.48,4.02,3.4,7.08,4.89,9.11c-2.59,3.26-5.19,6.52-7.78,9.78c-4.08-4.47-11.32-13.73-13.56-27.11
	c-3.81-22.74,8.46-47.67,29.82-58.15c15.58-7.64,30.54-4.93,35.92-3.63c29.03,6.97,39.61,35.06,40.27,36.89
	c6.89,19.28,2.66,40.05-7.21,53.13c-5.55,7.36-12.04,11.17-13.46,11.98c-4.53,2.59-13.14,7.5-23.56,5.11
	c-7.94-1.82-13.01-6.99-15.33-9.78c-2.85,11.22-5.71,22.45-8.56,33.67c-1.42,2.93-3.27,6.22-5.66,9.66
	c-3.23,4.65-6.6,8.31-9.56,11.11c-1.26-0.22-2.52-0.44-3.78-0.67c-0.5-5.54-0.62-12.16,0.22-19.56c0.43-3.78,1.06-7.27,1.78-10.44
	c3.56-18.37,7.11-36.74,10.67-55.11c-5.23-9.29-5.22-19.91,0.04-26.76c3.99-5.19,10.13-7.08,10.84-7.29c2.68-0.79,6.68-1.96,10.88,0
	c4.63,2.16,6.36,6.64,6.76,7.77c0.59,8.4-0.77,14.67-2.16,18.89C149.06,142.6,144.64,147.27,146.11,154.71z"/>
</svg>
